<?xml version="1.0" encoding="utf-8"?>
<!-- Generator: Adobe Illustrator 16.0.0, SVG Export Plug-In . SVG Version: 6.00 Build 0)  -->
<!DOCTYPE svg PUBLIC "-//W3C//DTD SVG 1.1//EN" "http://www.w3.org/Graphics/SVG/1.1/DTD/svg11.dtd">
<svg version="1.1" id="Layer_1" xmlns="http://www.w3.org/2000/svg" xmlns:xlink="http://www.w3.org/1999/xlink" x="0px" y="0px"
	 width="111px" height="100px" viewBox="0 0 111 100" enable-background="new 0 0 111 100" xml:space="preserve">
<path fill="#121212" d="M75.949-0.031c-10.734,0-20.348,4.882-26.744,12.54l0.008,69.854c-3.852,3.182-8.786,5.096-14.161,5.096
	c-12.276,0-22.264-9.986-22.264-22.264s9.988-22.264,22.264-22.264c0.025,0,0.046,0.003,0.071,0.003V30.36
	c-0.023,0-0.047-0.002-0.071-0.002c-19.209,0-34.838,15.627-34.838,34.837c0,19.209,15.629,34.836,34.838,34.836
	c10.724,0,20.327-4.873,26.722-12.518l0.011-69.874c3.853-3.183,8.789-5.099,14.164-5.099c12.276,0,22.264,9.987,22.264,22.265
	c0,12.275-9.987,22.263-22.264,22.263c-0.03,0-0.062-0.004-0.093-0.004v12.576c0.031,0,0.062,0,0.093,0
	c19.209,0,34.836-15.627,34.836-34.835C110.785,15.596,95.158-0.031,75.949-0.031z"/>
</svg>
