<?xml version="1.0" encoding="utf-8"?>
<!-- Generator: Adobe Illustrator 16.0.0, SVG Export Plug-In . SVG Version: 6.00 Build 0)  -->
<!DOCTYPE svg PUBLIC "-//W3C//DTD SVG 1.1//EN" "http://www.w3.org/Graphics/SVG/1.1/DTD/svg11.dtd">
<svg version="1.1" id="Layer_1" xmlns="http://www.w3.org/2000/svg" xmlns:xlink="http://www.w3.org/1999/xlink" x="0px" y="0px"
	 width="21px" height="15px" viewBox="24.546 17.52 21 15" enable-background="new 24.546 17.52 21 15" xml:space="preserve">
<g>
	<path fill="#555655" d="M44.046,23.52h-18c-0.828,0-1.5,0.671-1.5,1.5c0,0.828,0.672,1.5,1.5,1.5h18c0.829,0,1.5-0.672,1.5-1.5
		C45.546,24.191,44.875,23.52,44.046,23.52z M26.046,20.52h18c0.829,0,1.5-0.671,1.5-1.5s-0.671-1.5-1.5-1.5h-18
		c-0.828,0-1.5,0.671-1.5,1.5S25.218,20.52,26.046,20.52z M44.046,29.52h-18c-0.828,0-1.5,0.672-1.5,1.5s0.672,1.5,1.5,1.5h18
		c0.829,0,1.5-0.672,1.5-1.5S44.875,29.52,44.046,29.52z"/>
</g>
</svg>
